<mxfile host="www.draw.io" modified="2019-10-15T22:48:22.324Z" agent="Mozilla/5.0 (Windows NT 10.0; Win64; x64) AppleWebKit/537.36 (KHTML, like Gecko) Chrome/77.0.3865.120 Safari/537.36" etag="m-i7qlQ6FRwBwUgtK0We" version="12.1.1" type="github" pages="1">
  <diagram name="Page-1" id="2a216829-ef6e-dabb-86c1-c78162f3ba2b">
    <mxGraphModel dx="1173" dy="609" grid="1" gridSize="10" guides="1" tooltips="1" connect="1" arrows="1" fold="1" page="1" pageScale="1" pageWidth="850" pageHeight="1100" background="#ffffff" math="0" shadow="0">
      <root>
        <mxCell id="0"/>
        <mxCell id="1" parent="0"/>
        <mxCell id="jMzeNbR2E3meVdIYXbgE-1" value="" style="endArrow=none;html=1;" edge="1" parent="1">
          <mxGeometry width="50" height="50" relative="1" as="geometry">
            <mxPoint x="80" y="640" as="sourcePoint"/>
            <mxPoint x="80" y="120" as="targetPoint"/>
          </mxGeometry>
        </mxCell>
        <mxCell id="jMzeNbR2E3meVdIYXbgE-2" value="" style="endArrow=none;html=1;" edge="1" parent="1">
          <mxGeometry width="50" height="50" relative="1" as="geometry">
            <mxPoint x="80" y="640" as="sourcePoint"/>
            <mxPoint x="440" y="640" as="targetPoint"/>
            <Array as="points"/>
          </mxGeometry>
        </mxCell>
        <mxCell id="jMzeNbR2E3meVdIYXbgE-3" value="" style="endArrow=none;html=1;" edge="1" parent="1">
          <mxGeometry width="50" height="50" relative="1" as="geometry">
            <mxPoint x="440" y="640" as="sourcePoint"/>
            <mxPoint x="440" y="120" as="targetPoint"/>
          </mxGeometry>
        </mxCell>
        <mxCell id="jMzeNbR2E3meVdIYXbgE-4" value="" style="endArrow=none;html=1;" edge="1" parent="1">
          <mxGeometry width="50" height="50" relative="1" as="geometry">
            <mxPoint x="520" y="640" as="sourcePoint"/>
            <mxPoint x="520" y="120" as="targetPoint"/>
          </mxGeometry>
        </mxCell>
        <mxCell id="jMzeNbR2E3meVdIYXbgE-5" value="" style="endArrow=none;html=1;" edge="1" parent="1">
          <mxGeometry width="50" height="50" relative="1" as="geometry">
            <mxPoint x="520" y="640" as="sourcePoint"/>
            <mxPoint x="880" y="640" as="targetPoint"/>
            <Array as="points"/>
          </mxGeometry>
        </mxCell>
        <mxCell id="jMzeNbR2E3meVdIYXbgE-6" value="" style="endArrow=none;html=1;" edge="1" parent="1">
          <mxGeometry width="50" height="50" relative="1" as="geometry">
            <mxPoint x="880" y="640" as="sourcePoint"/>
            <mxPoint x="880" y="120" as="targetPoint"/>
          </mxGeometry>
        </mxCell>
        <mxCell id="jMzeNbR2E3meVdIYXbgE-7" value="" style="endArrow=none;html=1;" edge="1" parent="1">
          <mxGeometry width="50" height="50" relative="1" as="geometry">
            <mxPoint y="120" as="sourcePoint"/>
            <mxPoint x="80" y="120" as="targetPoint"/>
          </mxGeometry>
        </mxCell>
        <mxCell id="jMzeNbR2E3meVdIYXbgE-8" value="" style="endArrow=none;html=1;" edge="1" parent="1">
          <mxGeometry width="50" height="50" relative="1" as="geometry">
            <mxPoint y="160" as="sourcePoint"/>
            <mxPoint x="80" y="160" as="targetPoint"/>
          </mxGeometry>
        </mxCell>
        <mxCell id="jMzeNbR2E3meVdIYXbgE-9" value="" style="endArrow=none;html=1;" edge="1" parent="1">
          <mxGeometry width="50" height="50" relative="1" as="geometry">
            <mxPoint y="200" as="sourcePoint"/>
            <mxPoint x="80" y="200" as="targetPoint"/>
          </mxGeometry>
        </mxCell>
        <mxCell id="jMzeNbR2E3meVdIYXbgE-10" value="" style="endArrow=none;html=1;" edge="1" parent="1">
          <mxGeometry width="50" height="50" relative="1" as="geometry">
            <mxPoint y="240" as="sourcePoint"/>
            <mxPoint x="80" y="240" as="targetPoint"/>
          </mxGeometry>
        </mxCell>
        <mxCell id="jMzeNbR2E3meVdIYXbgE-11" value="" style="endArrow=none;html=1;" edge="1" parent="1">
          <mxGeometry width="50" height="50" relative="1" as="geometry">
            <mxPoint y="280" as="sourcePoint"/>
            <mxPoint x="80" y="280" as="targetPoint"/>
          </mxGeometry>
        </mxCell>
        <mxCell id="jMzeNbR2E3meVdIYXbgE-12" value="" style="endArrow=none;html=1;" edge="1" parent="1">
          <mxGeometry width="50" height="50" relative="1" as="geometry">
            <mxPoint y="320" as="sourcePoint"/>
            <mxPoint x="80" y="320" as="targetPoint"/>
          </mxGeometry>
        </mxCell>
        <mxCell id="jMzeNbR2E3meVdIYXbgE-13" value="" style="endArrow=none;html=1;" edge="1" parent="1">
          <mxGeometry width="50" height="50" relative="1" as="geometry">
            <mxPoint x="440" y="120" as="sourcePoint"/>
            <mxPoint x="520" y="120" as="targetPoint"/>
          </mxGeometry>
        </mxCell>
        <mxCell id="jMzeNbR2E3meVdIYXbgE-14" value="" style="endArrow=none;html=1;" edge="1" parent="1">
          <mxGeometry width="50" height="50" relative="1" as="geometry">
            <mxPoint x="440" y="160" as="sourcePoint"/>
            <mxPoint x="520" y="160" as="targetPoint"/>
          </mxGeometry>
        </mxCell>
        <mxCell id="jMzeNbR2E3meVdIYXbgE-15" value="" style="endArrow=none;html=1;" edge="1" parent="1">
          <mxGeometry width="50" height="50" relative="1" as="geometry">
            <mxPoint x="440" y="200" as="sourcePoint"/>
            <mxPoint x="520" y="200" as="targetPoint"/>
          </mxGeometry>
        </mxCell>
        <mxCell id="jMzeNbR2E3meVdIYXbgE-16" value="" style="endArrow=none;html=1;" edge="1" parent="1">
          <mxGeometry width="50" height="50" relative="1" as="geometry">
            <mxPoint x="440" y="240" as="sourcePoint"/>
            <mxPoint x="520" y="240" as="targetPoint"/>
          </mxGeometry>
        </mxCell>
        <mxCell id="jMzeNbR2E3meVdIYXbgE-17" value="" style="endArrow=none;html=1;" edge="1" parent="1">
          <mxGeometry width="50" height="50" relative="1" as="geometry">
            <mxPoint x="440" y="280" as="sourcePoint"/>
            <mxPoint x="520" y="280" as="targetPoint"/>
          </mxGeometry>
        </mxCell>
        <mxCell id="jMzeNbR2E3meVdIYXbgE-18" value="" style="endArrow=none;html=1;" edge="1" parent="1">
          <mxGeometry width="50" height="50" relative="1" as="geometry">
            <mxPoint x="440" y="320" as="sourcePoint"/>
            <mxPoint x="520" y="320" as="targetPoint"/>
          </mxGeometry>
        </mxCell>
        <mxCell id="jMzeNbR2E3meVdIYXbgE-19" value="" style="endArrow=none;html=1;" edge="1" parent="1">
          <mxGeometry width="50" height="50" relative="1" as="geometry">
            <mxPoint x="880" y="120" as="sourcePoint"/>
            <mxPoint x="960" y="120" as="targetPoint"/>
          </mxGeometry>
        </mxCell>
        <mxCell id="jMzeNbR2E3meVdIYXbgE-20" value="" style="endArrow=none;html=1;" edge="1" parent="1">
          <mxGeometry width="50" height="50" relative="1" as="geometry">
            <mxPoint x="880" y="160" as="sourcePoint"/>
            <mxPoint x="960" y="160" as="targetPoint"/>
          </mxGeometry>
        </mxCell>
        <mxCell id="jMzeNbR2E3meVdIYXbgE-21" value="" style="endArrow=none;html=1;" edge="1" parent="1">
          <mxGeometry width="50" height="50" relative="1" as="geometry">
            <mxPoint x="880" y="200" as="sourcePoint"/>
            <mxPoint x="960" y="200" as="targetPoint"/>
          </mxGeometry>
        </mxCell>
        <mxCell id="jMzeNbR2E3meVdIYXbgE-22" value="" style="endArrow=none;html=1;" edge="1" parent="1">
          <mxGeometry width="50" height="50" relative="1" as="geometry">
            <mxPoint x="880" y="240" as="sourcePoint"/>
            <mxPoint x="960" y="240" as="targetPoint"/>
          </mxGeometry>
        </mxCell>
        <mxCell id="jMzeNbR2E3meVdIYXbgE-23" value="" style="endArrow=none;html=1;" edge="1" parent="1">
          <mxGeometry width="50" height="50" relative="1" as="geometry">
            <mxPoint x="880" y="280" as="sourcePoint"/>
            <mxPoint x="960" y="280" as="targetPoint"/>
          </mxGeometry>
        </mxCell>
        <mxCell id="jMzeNbR2E3meVdIYXbgE-24" value="" style="endArrow=none;html=1;" edge="1" parent="1">
          <mxGeometry width="50" height="50" relative="1" as="geometry">
            <mxPoint x="880" y="320" as="sourcePoint"/>
            <mxPoint x="960" y="320" as="targetPoint"/>
          </mxGeometry>
        </mxCell>
        <mxCell id="jMzeNbR2E3meVdIYXbgE-25" value="1" style="text;html=1;resizable=0;points=[];autosize=1;align=left;verticalAlign=top;spacingTop=-4;" vertex="1" parent="1">
          <mxGeometry y="100" width="20" height="20" as="geometry"/>
        </mxCell>
        <mxCell id="jMzeNbR2E3meVdIYXbgE-26" value="2" style="text;html=1;resizable=0;points=[];autosize=1;align=left;verticalAlign=top;spacingTop=-4;" vertex="1" parent="1">
          <mxGeometry y="140" width="20" height="20" as="geometry"/>
        </mxCell>
        <mxCell id="jMzeNbR2E3meVdIYXbgE-27" value="3" style="text;html=1;resizable=0;points=[];autosize=1;align=left;verticalAlign=top;spacingTop=-4;" vertex="1" parent="1">
          <mxGeometry y="180" width="20" height="20" as="geometry"/>
        </mxCell>
        <mxCell id="jMzeNbR2E3meVdIYXbgE-28" value="7" style="text;html=1;resizable=0;points=[];autosize=1;align=left;verticalAlign=top;spacingTop=-4;" vertex="1" parent="1">
          <mxGeometry y="220" width="20" height="20" as="geometry"/>
        </mxCell>
        <mxCell id="jMzeNbR2E3meVdIYXbgE-29" value="8" style="text;html=1;resizable=0;points=[];autosize=1;align=left;verticalAlign=top;spacingTop=-4;" vertex="1" parent="1">
          <mxGeometry y="260" width="20" height="20" as="geometry"/>
        </mxCell>
        <mxCell id="jMzeNbR2E3meVdIYXbgE-30" value="9" style="text;html=1;resizable=0;points=[];autosize=1;align=left;verticalAlign=top;spacingTop=-4;" vertex="1" parent="1">
          <mxGeometry y="300" width="20" height="20" as="geometry"/>
        </mxCell>
        <mxCell id="jMzeNbR2E3meVdIYXbgE-31" value="1" style="text;html=1;resizable=0;points=[];autosize=1;align=left;verticalAlign=top;spacingTop=-4;" vertex="1" parent="1">
          <mxGeometry x="940" y="100" width="20" height="20" as="geometry"/>
        </mxCell>
        <mxCell id="jMzeNbR2E3meVdIYXbgE-32" value="2" style="text;html=1;resizable=0;points=[];autosize=1;align=left;verticalAlign=top;spacingTop=-4;" vertex="1" parent="1">
          <mxGeometry x="940" y="140" width="20" height="20" as="geometry"/>
        </mxCell>
        <mxCell id="jMzeNbR2E3meVdIYXbgE-33" value="3" style="text;html=1;resizable=0;points=[];autosize=1;align=left;verticalAlign=top;spacingTop=-4;" vertex="1" parent="1">
          <mxGeometry x="940" y="180" width="20" height="20" as="geometry"/>
        </mxCell>
        <mxCell id="jMzeNbR2E3meVdIYXbgE-34" value="7" style="text;html=1;resizable=0;points=[];autosize=1;align=left;verticalAlign=top;spacingTop=-4;" vertex="1" parent="1">
          <mxGeometry x="940" y="220" width="20" height="20" as="geometry"/>
        </mxCell>
        <mxCell id="jMzeNbR2E3meVdIYXbgE-35" value="8" style="text;html=1;resizable=0;points=[];autosize=1;align=left;verticalAlign=top;spacingTop=-4;" vertex="1" parent="1">
          <mxGeometry x="940" y="260" width="20" height="20" as="geometry"/>
        </mxCell>
        <mxCell id="jMzeNbR2E3meVdIYXbgE-36" value="9" style="text;html=1;resizable=0;points=[];autosize=1;align=left;verticalAlign=top;spacingTop=-4;" vertex="1" parent="1">
          <mxGeometry x="940" y="300" width="20" height="20" as="geometry"/>
        </mxCell>
        <mxCell id="jMzeNbR2E3meVdIYXbgE-37" value="4" style="text;html=1;resizable=0;points=[];autosize=1;align=left;verticalAlign=top;spacingTop=-4;" vertex="1" parent="1">
          <mxGeometry x="470" y="100" width="20" height="20" as="geometry"/>
        </mxCell>
        <mxCell id="jMzeNbR2E3meVdIYXbgE-38" value="5" style="text;html=1;resizable=0;points=[];autosize=1;align=left;verticalAlign=top;spacingTop=-4;" vertex="1" parent="1">
          <mxGeometry x="470" y="140" width="20" height="20" as="geometry"/>
        </mxCell>
        <mxCell id="jMzeNbR2E3meVdIYXbgE-39" value="6" style="text;html=1;resizable=0;points=[];autosize=1;align=left;verticalAlign=top;spacingTop=-4;" vertex="1" parent="1">
          <mxGeometry x="470" y="180" width="20" height="20" as="geometry"/>
        </mxCell>
        <mxCell id="jMzeNbR2E3meVdIYXbgE-40" value="10" style="text;html=1;resizable=0;points=[];autosize=1;align=left;verticalAlign=top;spacingTop=-4;" vertex="1" parent="1">
          <mxGeometry x="470" y="220" width="30" height="20" as="geometry"/>
        </mxCell>
        <mxCell id="jMzeNbR2E3meVdIYXbgE-41" value="11" style="text;html=1;resizable=0;points=[];autosize=1;align=left;verticalAlign=top;spacingTop=-4;" vertex="1" parent="1">
          <mxGeometry x="470" y="260" width="30" height="20" as="geometry"/>
        </mxCell>
        <mxCell id="jMzeNbR2E3meVdIYXbgE-42" value="12" style="text;html=1;resizable=0;points=[];autosize=1;align=left;verticalAlign=top;spacingTop=-4;" vertex="1" parent="1">
          <mxGeometry x="470" y="300" width="30" height="20" as="geometry"/>
        </mxCell>
        <mxCell id="jMzeNbR2E3meVdIYXbgE-43" value="" style="endArrow=none;html=1;" edge="1" parent="1">
          <mxGeometry width="50" height="50" relative="1" as="geometry">
            <mxPoint x="1040" y="119" as="sourcePoint"/>
            <mxPoint x="1120" y="119" as="targetPoint"/>
          </mxGeometry>
        </mxCell>
        <mxCell id="jMzeNbR2E3meVdIYXbgE-44" value="" style="endArrow=none;html=1;" edge="1" parent="1">
          <mxGeometry width="50" height="50" relative="1" as="geometry">
            <mxPoint x="1040" y="199" as="sourcePoint"/>
            <mxPoint x="1120" y="199" as="targetPoint"/>
          </mxGeometry>
        </mxCell>
        <mxCell id="jMzeNbR2E3meVdIYXbgE-46" value="&lt;font style=&quot;font-size: 26px&quot;&gt;&amp;amp;&lt;/font&gt;" style="rounded=0;whiteSpace=wrap;html=1;" vertex="1" parent="1">
          <mxGeometry x="1120" y="119" width="40" height="80" as="geometry"/>
        </mxCell>
        <mxCell id="jMzeNbR2E3meVdIYXbgE-47" value="" style="endArrow=none;html=1;" edge="1" parent="1">
          <mxGeometry width="50" height="50" relative="1" as="geometry">
            <mxPoint x="1160" y="159" as="sourcePoint"/>
            <mxPoint x="1240" y="159" as="targetPoint"/>
          </mxGeometry>
        </mxCell>
        <mxCell id="jMzeNbR2E3meVdIYXbgE-48" value="" style="endArrow=none;html=1;" edge="1" parent="1">
          <mxGeometry width="50" height="50" relative="1" as="geometry">
            <mxPoint x="1400" y="120" as="sourcePoint"/>
            <mxPoint x="1480" y="120" as="targetPoint"/>
          </mxGeometry>
        </mxCell>
        <mxCell id="jMzeNbR2E3meVdIYXbgE-49" value="" style="endArrow=none;html=1;" edge="1" parent="1">
          <mxGeometry width="50" height="50" relative="1" as="geometry">
            <mxPoint x="1400" y="200" as="sourcePoint"/>
            <mxPoint x="1480" y="200" as="targetPoint"/>
          </mxGeometry>
        </mxCell>
        <mxCell id="jMzeNbR2E3meVdIYXbgE-50" value="&lt;font style=&quot;font-size: 26px&quot;&gt;1&lt;/font&gt;" style="rounded=0;whiteSpace=wrap;html=1;" vertex="1" parent="1">
          <mxGeometry x="1480" y="120" width="40" height="80" as="geometry"/>
        </mxCell>
        <mxCell id="jMzeNbR2E3meVdIYXbgE-51" value="" style="endArrow=none;html=1;" edge="1" parent="1" source="jMzeNbR2E3meVdIYXbgE-143">
          <mxGeometry width="50" height="50" relative="1" as="geometry">
            <mxPoint x="1520" y="160" as="sourcePoint"/>
            <mxPoint x="1600" y="160" as="targetPoint"/>
          </mxGeometry>
        </mxCell>
        <mxCell id="jMzeNbR2E3meVdIYXbgE-52" value="p3" style="text;html=1;resizable=0;points=[];autosize=1;align=left;verticalAlign=top;spacingTop=-4;" vertex="1" parent="1">
          <mxGeometry x="1040" y="99" width="30" height="20" as="geometry"/>
        </mxCell>
        <mxCell id="jMzeNbR2E3meVdIYXbgE-53" value="a3" style="text;html=1;resizable=0;points=[];autosize=1;align=left;verticalAlign=top;spacingTop=-4;" vertex="1" parent="1">
          <mxGeometry x="1040" y="179" width="30" height="20" as="geometry"/>
        </mxCell>
        <mxCell id="jMzeNbR2E3meVdIYXbgE-54" value="p2" style="text;html=1;resizable=0;points=[];autosize=1;align=left;verticalAlign=top;spacingTop=-4;" vertex="1" parent="1">
          <mxGeometry x="1200" y="139" width="30" height="20" as="geometry"/>
        </mxCell>
        <mxCell id="jMzeNbR2E3meVdIYXbgE-55" value="p2" style="text;html=1;resizable=0;points=[];autosize=1;align=left;verticalAlign=top;spacingTop=-4;" vertex="1" parent="1">
          <mxGeometry x="1400" y="100" width="30" height="20" as="geometry"/>
        </mxCell>
        <mxCell id="jMzeNbR2E3meVdIYXbgE-56" value="p2" style="text;html=1;resizable=0;points=[];autosize=1;align=left;verticalAlign=top;spacingTop=-4;" vertex="1" parent="1">
          <mxGeometry x="1400" y="180" width="30" height="20" as="geometry"/>
        </mxCell>
        <mxCell id="jMzeNbR2E3meVdIYXbgE-57" value="!p2" style="text;html=1;resizable=0;points=[];autosize=1;align=left;verticalAlign=top;spacingTop=-4;" vertex="1" parent="1">
          <mxGeometry x="1560" y="140" width="30" height="20" as="geometry"/>
        </mxCell>
        <mxCell id="jMzeNbR2E3meVdIYXbgE-58" value="&lt;font style=&quot;font-size: 42px&quot;&gt;8&lt;/font&gt;" style="text;html=1;strokeColor=none;fillColor=none;align=center;verticalAlign=middle;whiteSpace=wrap;rounded=0;" vertex="1" parent="1">
          <mxGeometry x="1220" y="40" width="40" height="20" as="geometry"/>
        </mxCell>
        <mxCell id="jMzeNbR2E3meVdIYXbgE-59" value="&lt;font style=&quot;font-size: 42px&quot;&gt;5&lt;/font&gt;" style="text;html=1;strokeColor=none;fillColor=none;align=center;verticalAlign=middle;whiteSpace=wrap;rounded=0;" vertex="1" parent="1">
          <mxGeometry x="1290" y="40" width="40" height="20" as="geometry"/>
        </mxCell>
        <mxCell id="jMzeNbR2E3meVdIYXbgE-61" value="" style="endArrow=none;html=1;" edge="1" parent="1">
          <mxGeometry width="50" height="50" relative="1" as="geometry">
            <mxPoint x="1040" y="240" as="sourcePoint"/>
            <mxPoint x="1120" y="240" as="targetPoint"/>
          </mxGeometry>
        </mxCell>
        <mxCell id="jMzeNbR2E3meVdIYXbgE-62" value="" style="endArrow=none;html=1;" edge="1" parent="1">
          <mxGeometry width="50" height="50" relative="1" as="geometry">
            <mxPoint x="1040" y="320" as="sourcePoint"/>
            <mxPoint x="1120" y="320" as="targetPoint"/>
          </mxGeometry>
        </mxCell>
        <mxCell id="jMzeNbR2E3meVdIYXbgE-63" value="&lt;font style=&quot;font-size: 26px&quot;&gt;&amp;amp;&lt;/font&gt;" style="rounded=0;whiteSpace=wrap;html=1;" vertex="1" parent="1">
          <mxGeometry x="1120" y="240" width="40" height="80" as="geometry"/>
        </mxCell>
        <mxCell id="jMzeNbR2E3meVdIYXbgE-64" value="" style="endArrow=none;html=1;" edge="1" parent="1">
          <mxGeometry width="50" height="50" relative="1" as="geometry">
            <mxPoint x="1160" y="280" as="sourcePoint"/>
            <mxPoint x="1240" y="280" as="targetPoint"/>
          </mxGeometry>
        </mxCell>
        <mxCell id="jMzeNbR2E3meVdIYXbgE-65" value="p2" style="text;html=1;resizable=0;points=[];autosize=1;align=left;verticalAlign=top;spacingTop=-4;" vertex="1" parent="1">
          <mxGeometry x="1040" y="220" width="30" height="20" as="geometry"/>
        </mxCell>
        <mxCell id="jMzeNbR2E3meVdIYXbgE-66" value="a2" style="text;html=1;resizable=0;points=[];autosize=1;align=left;verticalAlign=top;spacingTop=-4;" vertex="1" parent="1">
          <mxGeometry x="1040" y="300" width="30" height="20" as="geometry"/>
        </mxCell>
        <mxCell id="jMzeNbR2E3meVdIYXbgE-67" value="p1" style="text;html=1;resizable=0;points=[];autosize=1;align=left;verticalAlign=top;spacingTop=-4;" vertex="1" parent="1">
          <mxGeometry x="1200" y="260" width="30" height="20" as="geometry"/>
        </mxCell>
        <mxCell id="jMzeNbR2E3meVdIYXbgE-68" value="" style="endArrow=none;html=1;" edge="1" parent="1">
          <mxGeometry width="50" height="50" relative="1" as="geometry">
            <mxPoint x="1040" y="360" as="sourcePoint"/>
            <mxPoint x="1120" y="360" as="targetPoint"/>
          </mxGeometry>
        </mxCell>
        <mxCell id="jMzeNbR2E3meVdIYXbgE-69" value="" style="endArrow=none;html=1;" edge="1" parent="1">
          <mxGeometry width="50" height="50" relative="1" as="geometry">
            <mxPoint x="1040" y="440" as="sourcePoint"/>
            <mxPoint x="1120" y="440" as="targetPoint"/>
          </mxGeometry>
        </mxCell>
        <mxCell id="jMzeNbR2E3meVdIYXbgE-70" value="&lt;font style=&quot;font-size: 26px&quot;&gt;&amp;amp;&lt;/font&gt;" style="rounded=0;whiteSpace=wrap;html=1;" vertex="1" parent="1">
          <mxGeometry x="1120" y="360" width="40" height="80" as="geometry"/>
        </mxCell>
        <mxCell id="jMzeNbR2E3meVdIYXbgE-71" value="" style="endArrow=none;html=1;" edge="1" parent="1">
          <mxGeometry width="50" height="50" relative="1" as="geometry">
            <mxPoint x="1160" y="400" as="sourcePoint"/>
            <mxPoint x="1240" y="400" as="targetPoint"/>
          </mxGeometry>
        </mxCell>
        <mxCell id="jMzeNbR2E3meVdIYXbgE-72" value="a3" style="text;html=1;resizable=0;points=[];autosize=1;align=left;verticalAlign=top;spacingTop=-4;" vertex="1" parent="1">
          <mxGeometry x="1040" y="340" width="30" height="20" as="geometry"/>
        </mxCell>
        <mxCell id="jMzeNbR2E3meVdIYXbgE-73" value="!p3" style="text;html=1;resizable=0;points=[];autosize=1;align=left;verticalAlign=top;spacingTop=-4;" vertex="1" parent="1">
          <mxGeometry x="1040" y="420" width="30" height="20" as="geometry"/>
        </mxCell>
        <mxCell id="jMzeNbR2E3meVdIYXbgE-74" value="b3.1" style="text;html=1;resizable=0;points=[];autosize=1;align=left;verticalAlign=top;spacingTop=-4;" vertex="1" parent="1">
          <mxGeometry x="1200" y="380" width="40" height="20" as="geometry"/>
        </mxCell>
        <mxCell id="jMzeNbR2E3meVdIYXbgE-75" value="" style="endArrow=none;html=1;" edge="1" parent="1">
          <mxGeometry width="50" height="50" relative="1" as="geometry">
            <mxPoint x="1040" y="480" as="sourcePoint"/>
            <mxPoint x="1120" y="480" as="targetPoint"/>
          </mxGeometry>
        </mxCell>
        <mxCell id="jMzeNbR2E3meVdIYXbgE-76" value="" style="endArrow=none;html=1;" edge="1" parent="1">
          <mxGeometry width="50" height="50" relative="1" as="geometry">
            <mxPoint x="1040" y="560" as="sourcePoint"/>
            <mxPoint x="1120" y="560" as="targetPoint"/>
          </mxGeometry>
        </mxCell>
        <mxCell id="jMzeNbR2E3meVdIYXbgE-77" value="&lt;font style=&quot;font-size: 26px&quot;&gt;&amp;amp;&lt;/font&gt;" style="rounded=0;whiteSpace=wrap;html=1;" vertex="1" parent="1">
          <mxGeometry x="1120" y="480" width="40" height="80" as="geometry"/>
        </mxCell>
        <mxCell id="jMzeNbR2E3meVdIYXbgE-78" value="" style="endArrow=none;html=1;" edge="1" parent="1">
          <mxGeometry width="50" height="50" relative="1" as="geometry">
            <mxPoint x="1160" y="520" as="sourcePoint"/>
            <mxPoint x="1240" y="520" as="targetPoint"/>
          </mxGeometry>
        </mxCell>
        <mxCell id="jMzeNbR2E3meVdIYXbgE-79" value="!a3" style="text;html=1;resizable=0;points=[];autosize=1;align=left;verticalAlign=top;spacingTop=-4;" vertex="1" parent="1">
          <mxGeometry x="1040" y="460" width="30" height="20" as="geometry"/>
        </mxCell>
        <mxCell id="jMzeNbR2E3meVdIYXbgE-80" value="p3" style="text;html=1;resizable=0;points=[];autosize=1;align=left;verticalAlign=top;spacingTop=-4;" vertex="1" parent="1">
          <mxGeometry x="1040" y="540" width="30" height="20" as="geometry"/>
        </mxCell>
        <mxCell id="jMzeNbR2E3meVdIYXbgE-81" value="b3.2" style="text;html=1;resizable=0;points=[];autosize=1;align=left;verticalAlign=top;spacingTop=-4;" vertex="1" parent="1">
          <mxGeometry x="1200" y="500" width="40" height="20" as="geometry"/>
        </mxCell>
        <mxCell id="jMzeNbR2E3meVdIYXbgE-82" value="" style="endArrow=none;html=1;" edge="1" parent="1">
          <mxGeometry width="50" height="50" relative="1" as="geometry">
            <mxPoint x="1040" y="600" as="sourcePoint"/>
            <mxPoint x="1120" y="600" as="targetPoint"/>
          </mxGeometry>
        </mxCell>
        <mxCell id="jMzeNbR2E3meVdIYXbgE-83" value="" style="endArrow=none;html=1;" edge="1" parent="1">
          <mxGeometry width="50" height="50" relative="1" as="geometry">
            <mxPoint x="1040" y="680" as="sourcePoint"/>
            <mxPoint x="1120" y="680" as="targetPoint"/>
          </mxGeometry>
        </mxCell>
        <mxCell id="jMzeNbR2E3meVdIYXbgE-84" value="&lt;font style=&quot;font-size: 26px&quot;&gt;&amp;amp;&lt;/font&gt;" style="rounded=0;whiteSpace=wrap;html=1;" vertex="1" parent="1">
          <mxGeometry x="1120" y="600" width="40" height="80" as="geometry"/>
        </mxCell>
        <mxCell id="jMzeNbR2E3meVdIYXbgE-85" value="" style="endArrow=none;html=1;" edge="1" parent="1">
          <mxGeometry width="50" height="50" relative="1" as="geometry">
            <mxPoint x="1160" y="640" as="sourcePoint"/>
            <mxPoint x="1240" y="640" as="targetPoint"/>
          </mxGeometry>
        </mxCell>
        <mxCell id="jMzeNbR2E3meVdIYXbgE-87" value="!p2" style="text;html=1;resizable=0;points=[];autosize=1;align=left;verticalAlign=top;spacingTop=-4;" vertex="1" parent="1">
          <mxGeometry x="1040" y="660" width="30" height="20" as="geometry"/>
        </mxCell>
        <mxCell id="jMzeNbR2E3meVdIYXbgE-88" value="b2.1" style="text;html=1;resizable=0;points=[];autosize=1;align=left;verticalAlign=top;spacingTop=-4;" vertex="1" parent="1">
          <mxGeometry x="1200" y="620" width="40" height="20" as="geometry"/>
        </mxCell>
        <mxCell id="jMzeNbR2E3meVdIYXbgE-89" value="" style="endArrow=none;html=1;" edge="1" parent="1">
          <mxGeometry width="50" height="50" relative="1" as="geometry">
            <mxPoint x="1040" y="720" as="sourcePoint"/>
            <mxPoint x="1120" y="720" as="targetPoint"/>
          </mxGeometry>
        </mxCell>
        <mxCell id="jMzeNbR2E3meVdIYXbgE-90" value="" style="endArrow=none;html=1;" edge="1" parent="1">
          <mxGeometry width="50" height="50" relative="1" as="geometry">
            <mxPoint x="1040" y="800" as="sourcePoint"/>
            <mxPoint x="1120" y="800" as="targetPoint"/>
          </mxGeometry>
        </mxCell>
        <mxCell id="jMzeNbR2E3meVdIYXbgE-91" value="&lt;font style=&quot;font-size: 26px&quot;&gt;&amp;amp;&lt;/font&gt;" style="rounded=0;whiteSpace=wrap;html=1;" vertex="1" parent="1">
          <mxGeometry x="1120" y="720" width="40" height="80" as="geometry"/>
        </mxCell>
        <mxCell id="jMzeNbR2E3meVdIYXbgE-92" value="" style="endArrow=none;html=1;" edge="1" parent="1">
          <mxGeometry width="50" height="50" relative="1" as="geometry">
            <mxPoint x="1160" y="760" as="sourcePoint"/>
            <mxPoint x="1240" y="760" as="targetPoint"/>
          </mxGeometry>
        </mxCell>
        <mxCell id="jMzeNbR2E3meVdIYXbgE-93" value="!a2" style="text;html=1;resizable=0;points=[];autosize=1;align=left;verticalAlign=top;spacingTop=-4;" vertex="1" parent="1">
          <mxGeometry x="1040" y="700" width="30" height="20" as="geometry"/>
        </mxCell>
        <mxCell id="jMzeNbR2E3meVdIYXbgE-94" value="p2" style="text;html=1;resizable=0;points=[];autosize=1;align=left;verticalAlign=top;spacingTop=-4;" vertex="1" parent="1">
          <mxGeometry x="1040" y="780" width="30" height="20" as="geometry"/>
        </mxCell>
        <mxCell id="jMzeNbR2E3meVdIYXbgE-95" value="b2.2" style="text;html=1;resizable=0;points=[];autosize=1;align=left;verticalAlign=top;spacingTop=-4;" vertex="1" parent="1">
          <mxGeometry x="1200" y="740" width="40" height="20" as="geometry"/>
        </mxCell>
        <mxCell id="jMzeNbR2E3meVdIYXbgE-96" value="" style="endArrow=none;html=1;" edge="1" parent="1">
          <mxGeometry width="50" height="50" relative="1" as="geometry">
            <mxPoint x="1040" y="840" as="sourcePoint"/>
            <mxPoint x="1120" y="840" as="targetPoint"/>
          </mxGeometry>
        </mxCell>
        <mxCell id="jMzeNbR2E3meVdIYXbgE-97" value="" style="endArrow=none;html=1;" edge="1" parent="1">
          <mxGeometry width="50" height="50" relative="1" as="geometry">
            <mxPoint x="1040" y="920" as="sourcePoint"/>
            <mxPoint x="1120" y="920" as="targetPoint"/>
          </mxGeometry>
        </mxCell>
        <mxCell id="jMzeNbR2E3meVdIYXbgE-98" value="&lt;font style=&quot;font-size: 26px&quot;&gt;&amp;amp;&lt;/font&gt;" style="rounded=0;whiteSpace=wrap;html=1;" vertex="1" parent="1">
          <mxGeometry x="1120" y="840" width="40" height="80" as="geometry"/>
        </mxCell>
        <mxCell id="jMzeNbR2E3meVdIYXbgE-99" value="" style="endArrow=none;html=1;" edge="1" parent="1">
          <mxGeometry width="50" height="50" relative="1" as="geometry">
            <mxPoint x="1160" y="880" as="sourcePoint"/>
            <mxPoint x="1240" y="880" as="targetPoint"/>
          </mxGeometry>
        </mxCell>
        <mxCell id="jMzeNbR2E3meVdIYXbgE-100" value="a1" style="text;html=1;resizable=0;points=[];autosize=1;align=left;verticalAlign=top;spacingTop=-4;" vertex="1" parent="1">
          <mxGeometry x="1040" y="820" width="30" height="20" as="geometry"/>
        </mxCell>
        <mxCell id="jMzeNbR2E3meVdIYXbgE-101" value="!p1" style="text;html=1;resizable=0;points=[];autosize=1;align=left;verticalAlign=top;spacingTop=-4;" vertex="1" parent="1">
          <mxGeometry x="1040" y="900" width="30" height="20" as="geometry"/>
        </mxCell>
        <mxCell id="jMzeNbR2E3meVdIYXbgE-102" value="b1.1" style="text;html=1;resizable=0;points=[];autosize=1;align=left;verticalAlign=top;spacingTop=-4;" vertex="1" parent="1">
          <mxGeometry x="1200" y="860" width="40" height="20" as="geometry"/>
        </mxCell>
        <mxCell id="jMzeNbR2E3meVdIYXbgE-103" value="" style="endArrow=none;html=1;" edge="1" parent="1">
          <mxGeometry width="50" height="50" relative="1" as="geometry">
            <mxPoint x="1040" y="960" as="sourcePoint"/>
            <mxPoint x="1120" y="960" as="targetPoint"/>
          </mxGeometry>
        </mxCell>
        <mxCell id="jMzeNbR2E3meVdIYXbgE-104" value="" style="endArrow=none;html=1;" edge="1" parent="1">
          <mxGeometry width="50" height="50" relative="1" as="geometry">
            <mxPoint x="1040" y="1040" as="sourcePoint"/>
            <mxPoint x="1120" y="1040" as="targetPoint"/>
          </mxGeometry>
        </mxCell>
        <mxCell id="jMzeNbR2E3meVdIYXbgE-105" value="&lt;font style=&quot;font-size: 26px&quot;&gt;&amp;amp;&lt;/font&gt;" style="rounded=0;whiteSpace=wrap;html=1;" vertex="1" parent="1">
          <mxGeometry x="1120" y="960" width="40" height="80" as="geometry"/>
        </mxCell>
        <mxCell id="jMzeNbR2E3meVdIYXbgE-106" value="" style="endArrow=none;html=1;" edge="1" parent="1">
          <mxGeometry width="50" height="50" relative="1" as="geometry">
            <mxPoint x="1160" y="1000" as="sourcePoint"/>
            <mxPoint x="1240" y="1000" as="targetPoint"/>
          </mxGeometry>
        </mxCell>
        <mxCell id="jMzeNbR2E3meVdIYXbgE-107" value="!a1" style="text;html=1;resizable=0;points=[];autosize=1;align=left;verticalAlign=top;spacingTop=-4;" vertex="1" parent="1">
          <mxGeometry x="1040" y="940" width="30" height="20" as="geometry"/>
        </mxCell>
        <mxCell id="jMzeNbR2E3meVdIYXbgE-108" value="p1" style="text;html=1;resizable=0;points=[];autosize=1;align=left;verticalAlign=top;spacingTop=-4;" vertex="1" parent="1">
          <mxGeometry x="1040" y="1020" width="30" height="20" as="geometry"/>
        </mxCell>
        <mxCell id="jMzeNbR2E3meVdIYXbgE-109" value="b1.2" style="text;html=1;resizable=0;points=[];autosize=1;align=left;verticalAlign=top;spacingTop=-4;" vertex="1" parent="1">
          <mxGeometry x="1200" y="980" width="40" height="20" as="geometry"/>
        </mxCell>
        <mxCell id="jMzeNbR2E3meVdIYXbgE-110" value="" style="endArrow=none;html=1;" edge="1" parent="1">
          <mxGeometry width="50" height="50" relative="1" as="geometry">
            <mxPoint x="1400" y="240" as="sourcePoint"/>
            <mxPoint x="1480" y="240" as="targetPoint"/>
          </mxGeometry>
        </mxCell>
        <mxCell id="jMzeNbR2E3meVdIYXbgE-111" value="" style="endArrow=none;html=1;" edge="1" parent="1">
          <mxGeometry width="50" height="50" relative="1" as="geometry">
            <mxPoint x="1400" y="320" as="sourcePoint"/>
            <mxPoint x="1480" y="320" as="targetPoint"/>
          </mxGeometry>
        </mxCell>
        <mxCell id="jMzeNbR2E3meVdIYXbgE-112" value="&lt;font style=&quot;font-size: 26px&quot;&gt;1&lt;/font&gt;" style="rounded=0;whiteSpace=wrap;html=1;" vertex="1" parent="1">
          <mxGeometry x="1480" y="240" width="40" height="80" as="geometry"/>
        </mxCell>
        <mxCell id="jMzeNbR2E3meVdIYXbgE-113" value="" style="endArrow=none;html=1;" edge="1" parent="1" source="jMzeNbR2E3meVdIYXbgE-145">
          <mxGeometry width="50" height="50" relative="1" as="geometry">
            <mxPoint x="1520" y="280" as="sourcePoint"/>
            <mxPoint x="1600" y="280" as="targetPoint"/>
          </mxGeometry>
        </mxCell>
        <mxCell id="jMzeNbR2E3meVdIYXbgE-114" value="p1" style="text;html=1;resizable=0;points=[];autosize=1;align=left;verticalAlign=top;spacingTop=-4;" vertex="1" parent="1">
          <mxGeometry x="1400" y="220" width="30" height="20" as="geometry"/>
        </mxCell>
        <mxCell id="jMzeNbR2E3meVdIYXbgE-115" value="p1" style="text;html=1;resizable=0;points=[];autosize=1;align=left;verticalAlign=top;spacingTop=-4;" vertex="1" parent="1">
          <mxGeometry x="1400" y="300" width="30" height="20" as="geometry"/>
        </mxCell>
        <mxCell id="jMzeNbR2E3meVdIYXbgE-116" value="!p1" style="text;html=1;resizable=0;points=[];autosize=1;align=left;verticalAlign=top;spacingTop=-4;" vertex="1" parent="1">
          <mxGeometry x="1560" y="260" width="30" height="20" as="geometry"/>
        </mxCell>
        <mxCell id="jMzeNbR2E3meVdIYXbgE-117" value="" style="endArrow=none;html=1;" edge="1" parent="1">
          <mxGeometry width="50" height="50" relative="1" as="geometry">
            <mxPoint x="1400" y="360" as="sourcePoint"/>
            <mxPoint x="1480" y="360" as="targetPoint"/>
          </mxGeometry>
        </mxCell>
        <mxCell id="jMzeNbR2E3meVdIYXbgE-118" value="" style="endArrow=none;html=1;" edge="1" parent="1">
          <mxGeometry width="50" height="50" relative="1" as="geometry">
            <mxPoint x="1400" y="440" as="sourcePoint"/>
            <mxPoint x="1480" y="440" as="targetPoint"/>
          </mxGeometry>
        </mxCell>
        <mxCell id="jMzeNbR2E3meVdIYXbgE-119" value="&lt;font style=&quot;font-size: 26px&quot;&gt;1&lt;/font&gt;" style="rounded=0;whiteSpace=wrap;html=1;" vertex="1" parent="1">
          <mxGeometry x="1480" y="360" width="40" height="80" as="geometry"/>
        </mxCell>
        <mxCell id="jMzeNbR2E3meVdIYXbgE-120" value="" style="endArrow=none;html=1;" edge="1" parent="1">
          <mxGeometry width="50" height="50" relative="1" as="geometry">
            <mxPoint x="1520" y="400" as="sourcePoint"/>
            <mxPoint x="1600" y="400" as="targetPoint"/>
          </mxGeometry>
        </mxCell>
        <mxCell id="jMzeNbR2E3meVdIYXbgE-121" value="b3.1" style="text;html=1;resizable=0;points=[];autosize=1;align=left;verticalAlign=top;spacingTop=-4;" vertex="1" parent="1">
          <mxGeometry x="1400" y="340" width="40" height="20" as="geometry"/>
        </mxCell>
        <mxCell id="jMzeNbR2E3meVdIYXbgE-122" value="b3.2" style="text;html=1;resizable=0;points=[];autosize=1;align=left;verticalAlign=top;spacingTop=-4;" vertex="1" parent="1">
          <mxGeometry x="1400" y="420" width="40" height="20" as="geometry"/>
        </mxCell>
        <mxCell id="jMzeNbR2E3meVdIYXbgE-123" value="b3" style="text;html=1;resizable=0;points=[];autosize=1;align=left;verticalAlign=top;spacingTop=-4;" vertex="1" parent="1">
          <mxGeometry x="1560" y="380" width="30" height="20" as="geometry"/>
        </mxCell>
        <mxCell id="jMzeNbR2E3meVdIYXbgE-124" value="" style="endArrow=none;html=1;" edge="1" parent="1">
          <mxGeometry width="50" height="50" relative="1" as="geometry">
            <mxPoint x="1400" y="480" as="sourcePoint"/>
            <mxPoint x="1480" y="480" as="targetPoint"/>
          </mxGeometry>
        </mxCell>
        <mxCell id="jMzeNbR2E3meVdIYXbgE-125" value="" style="endArrow=none;html=1;" edge="1" parent="1">
          <mxGeometry width="50" height="50" relative="1" as="geometry">
            <mxPoint x="1400" y="560" as="sourcePoint"/>
            <mxPoint x="1480" y="560" as="targetPoint"/>
          </mxGeometry>
        </mxCell>
        <mxCell id="jMzeNbR2E3meVdIYXbgE-126" value="&lt;font style=&quot;font-size: 26px&quot;&gt;1&lt;/font&gt;" style="rounded=0;whiteSpace=wrap;html=1;" vertex="1" parent="1">
          <mxGeometry x="1480" y="480" width="40" height="80" as="geometry"/>
        </mxCell>
        <mxCell id="jMzeNbR2E3meVdIYXbgE-127" value="" style="endArrow=none;html=1;" edge="1" parent="1">
          <mxGeometry width="50" height="50" relative="1" as="geometry">
            <mxPoint x="1520" y="520" as="sourcePoint"/>
            <mxPoint x="1600" y="520" as="targetPoint"/>
          </mxGeometry>
        </mxCell>
        <mxCell id="jMzeNbR2E3meVdIYXbgE-128" value="b2.1" style="text;html=1;resizable=0;points=[];autosize=1;align=left;verticalAlign=top;spacingTop=-4;" vertex="1" parent="1">
          <mxGeometry x="1400" y="460" width="40" height="20" as="geometry"/>
        </mxCell>
        <mxCell id="jMzeNbR2E3meVdIYXbgE-129" value="b2.2" style="text;html=1;resizable=0;points=[];autosize=1;align=left;verticalAlign=top;spacingTop=-4;" vertex="1" parent="1">
          <mxGeometry x="1400" y="540" width="40" height="20" as="geometry"/>
        </mxCell>
        <mxCell id="jMzeNbR2E3meVdIYXbgE-130" value="b2" style="text;html=1;resizable=0;points=[];autosize=1;align=left;verticalAlign=top;spacingTop=-4;" vertex="1" parent="1">
          <mxGeometry x="1560" y="500" width="30" height="20" as="geometry"/>
        </mxCell>
        <mxCell id="jMzeNbR2E3meVdIYXbgE-131" value="" style="endArrow=none;html=1;" edge="1" parent="1">
          <mxGeometry width="50" height="50" relative="1" as="geometry">
            <mxPoint x="1400" y="600" as="sourcePoint"/>
            <mxPoint x="1480" y="600" as="targetPoint"/>
          </mxGeometry>
        </mxCell>
        <mxCell id="jMzeNbR2E3meVdIYXbgE-132" value="" style="endArrow=none;html=1;" edge="1" parent="1">
          <mxGeometry width="50" height="50" relative="1" as="geometry">
            <mxPoint x="1400" y="680" as="sourcePoint"/>
            <mxPoint x="1480" y="680" as="targetPoint"/>
          </mxGeometry>
        </mxCell>
        <mxCell id="jMzeNbR2E3meVdIYXbgE-133" value="&lt;font style=&quot;font-size: 26px&quot;&gt;1&lt;/font&gt;" style="rounded=0;whiteSpace=wrap;html=1;" vertex="1" parent="1">
          <mxGeometry x="1480" y="600" width="40" height="80" as="geometry"/>
        </mxCell>
        <mxCell id="jMzeNbR2E3meVdIYXbgE-134" value="" style="endArrow=none;html=1;" edge="1" parent="1">
          <mxGeometry width="50" height="50" relative="1" as="geometry">
            <mxPoint x="1520" y="640" as="sourcePoint"/>
            <mxPoint x="1600" y="640" as="targetPoint"/>
          </mxGeometry>
        </mxCell>
        <mxCell id="jMzeNbR2E3meVdIYXbgE-135" value="b1.1" style="text;html=1;resizable=0;points=[];autosize=1;align=left;verticalAlign=top;spacingTop=-4;" vertex="1" parent="1">
          <mxGeometry x="1400" y="580" width="40" height="20" as="geometry"/>
        </mxCell>
        <mxCell id="jMzeNbR2E3meVdIYXbgE-136" value="b1.2" style="text;html=1;resizable=0;points=[];autosize=1;align=left;verticalAlign=top;spacingTop=-4;" vertex="1" parent="1">
          <mxGeometry x="1400" y="660" width="40" height="20" as="geometry"/>
        </mxCell>
        <mxCell id="jMzeNbR2E3meVdIYXbgE-137" value="b1" style="text;html=1;resizable=0;points=[];autosize=1;align=left;verticalAlign=top;spacingTop=-4;" vertex="1" parent="1">
          <mxGeometry x="1560" y="620" width="30" height="20" as="geometry"/>
        </mxCell>
        <mxCell id="jMzeNbR2E3meVdIYXbgE-139" value="a2" style="text;html=1;resizable=0;points=[];autosize=1;align=left;verticalAlign=top;spacingTop=-4;" vertex="1" parent="1">
          <mxGeometry x="1040" y="580" width="30" height="20" as="geometry"/>
        </mxCell>
        <mxCell id="jMzeNbR2E3meVdIYXbgE-143" value="" style="shape=mxgraph.bpmn.shape;html=1;verticalLabelPosition=bottom;labelBackgroundColor=#ffffff;verticalAlign=top;align=center;perimeter=ellipsePerimeter;outlineConnect=0;outline=end;symbol=terminate;" vertex="1" parent="1">
          <mxGeometry x="1515" y="155" width="10" height="10" as="geometry"/>
        </mxCell>
        <mxCell id="jMzeNbR2E3meVdIYXbgE-144" value="" style="endArrow=none;html=1;" edge="1" parent="1" target="jMzeNbR2E3meVdIYXbgE-143">
          <mxGeometry width="50" height="50" relative="1" as="geometry">
            <mxPoint x="1520" y="160" as="sourcePoint"/>
            <mxPoint x="1600.0000000000002" y="160" as="targetPoint"/>
          </mxGeometry>
        </mxCell>
        <mxCell id="jMzeNbR2E3meVdIYXbgE-145" value="" style="shape=mxgraph.bpmn.shape;html=1;verticalLabelPosition=bottom;labelBackgroundColor=#ffffff;verticalAlign=top;align=center;perimeter=ellipsePerimeter;outlineConnect=0;outline=end;symbol=terminate;" vertex="1" parent="1">
          <mxGeometry x="1515" y="275" width="10" height="10" as="geometry"/>
        </mxCell>
        <mxCell id="jMzeNbR2E3meVdIYXbgE-146" value="" style="endArrow=none;html=1;" edge="1" parent="1" target="jMzeNbR2E3meVdIYXbgE-145">
          <mxGeometry width="50" height="50" relative="1" as="geometry">
            <mxPoint x="1520" y="280" as="sourcePoint"/>
            <mxPoint x="1600" y="280" as="targetPoint"/>
          </mxGeometry>
        </mxCell>
      </root>
    </mxGraphModel>
  </diagram>
</mxfile>
